<svg width="198" height="197" viewBox="0 0 198 197" fill="none" xmlns="http://www.w3.org/2000/svg">
<g clip-path="url(#clip0_18755_274449)">
<path opacity="0.1" d="M98.9992 196.393C153.232 196.393 197.196 152.429 197.196 98.1965C197.196 43.9641 153.232 0 98.9992 0C44.7668 0 0.802734 43.9641 0.802734 98.1965C0.802734 152.429 44.7668 196.393 98.9992 196.393Z" fill="#E86217"/>
<path d="M56.5142 68.7422C56.8692 68.3441 57.2991 68.0199 57.7794 67.788C58.2598 67.5561 58.7811 67.4211 59.3135 67.3907C59.846 67.3603 60.3793 67.435 60.8829 67.6107C61.3865 67.7864 61.8506 68.0595 62.2486 68.4145L75.2104 79.9752L69.8033 86.0375L56.8416 74.4769C56.4435 74.1218 56.1193 73.6919 55.8874 73.2115C55.6555 72.7312 55.5205 72.2098 55.4901 71.6773C55.4597 71.1448 55.5345 70.6115 55.7102 70.1079C55.8859 69.6043 56.1591 69.1402 56.5142 68.7422Z" fill="white"/>
<path d="M69.8363 86.6029L56.5763 74.7756C56.1389 74.3855 55.7826 73.9131 55.5278 73.3853C55.2731 72.8576 55.1247 72.2848 55.0913 71.6997C55.0578 71.1146 55.1399 70.5287 55.333 69.9753C55.526 69.422 55.8261 68.9121 56.2161 68.4747C56.6062 68.0373 57.0786 67.6811 57.6064 67.4263C58.1341 67.1715 58.7069 67.0231 59.292 66.9897C59.8771 66.9563 60.463 67.0384 61.0164 67.2314C61.5697 67.4244 62.0797 67.7245 62.517 68.1146L75.7786 79.9423L69.8363 86.6029ZM59.5502 67.7844C59.4792 67.7844 59.4081 67.7864 59.3367 67.7904C58.6139 67.8318 57.9196 68.0867 57.3416 68.5227C56.7637 68.9588 56.328 69.5564 56.0897 70.2401C55.8514 70.9237 55.8211 71.6626 56.0028 72.3635C56.1844 73.0643 56.5698 73.6956 57.1102 74.1774L69.7726 85.4711L74.6456 80.0078L61.9831 68.714C61.3152 68.1144 60.449 67.7833 59.5514 67.7844H59.5502Z" fill="#292A2E"/>
<path d="M128.191 86.0371L122.785 79.975L135.746 68.4143C136.55 67.6974 137.606 67.3291 138.681 67.3905C139.757 67.452 140.764 67.9381 141.481 68.742C142.198 69.5459 142.566 70.6016 142.505 71.6771C142.443 72.7525 141.957 73.7595 141.153 74.4765L128.191 86.0371Z" fill="white"/>
<path d="M128.16 86.6029L122.219 79.9423L135.48 68.1146C136.363 67.3268 137.523 66.9222 138.705 66.9897C139.887 67.0572 140.993 67.5914 141.781 68.4747C142.569 69.358 142.973 70.5181 142.906 71.6997C142.838 72.8814 142.304 73.9878 141.421 74.7756L128.16 86.6029ZM123.351 80.0072L128.224 85.4705L140.887 74.1774C141.246 73.8574 141.538 73.4699 141.747 73.037C141.956 72.6042 142.077 72.1343 142.105 71.6544C142.132 71.1745 142.065 70.6939 141.907 70.24C141.748 69.7862 141.502 69.3679 141.182 69.0092C140.862 68.6505 140.475 68.3583 140.042 68.1493C139.609 67.9403 139.139 67.8186 138.659 67.7912C138.179 67.7638 137.699 67.8312 137.245 67.9895C136.791 68.1479 136.373 68.394 136.014 68.714L123.351 80.0072Z" fill="#292A2E"/>
<path d="M133.591 93.5576C136.482 106.361 140.44 114.598 138.469 119.329C137.433 121.816 135.306 123.901 131.786 123.901C126.299 123.901 126.299 117.43 120.811 117.43C115.324 117.43 115.325 123.901 109.838 123.901C104.35 123.901 104.351 117.43 98.8647 117.43C93.3783 117.43 93.378 123.901 87.8912 123.901C82.4045 123.901 82.4048 117.43 76.9184 117.43C71.432 117.43 71.4326 123.901 65.9468 123.901C62.6896 123.901 60.8483 121.983 59.6806 119.766C56.8744 114.44 63.4146 102.721 65.9468 92.3863C68.7446 80.9666 68.5089 66.7425 68.8842 58.1637C69.6084 41.6198 82.3073 28.1797 98.8683 28.1797C115.429 28.1797 127.646 41.6479 128.852 58.1637C129.503 67.0674 130.944 81.837 133.591 93.5576Z" fill="white"/>
<path d="M131.786 124.305C128.855 124.305 127.399 122.588 125.99 120.925C124.641 119.335 123.367 117.833 120.811 117.833C118.254 117.833 116.982 119.335 115.632 120.925C114.224 122.586 112.768 124.305 109.837 124.305C106.906 124.305 105.45 122.588 104.042 120.925C102.694 119.335 101.42 117.833 98.8642 117.833C96.3087 117.833 95.0357 119.335 93.6862 120.925C92.2777 122.586 90.8217 124.305 87.8908 124.305C84.9599 124.305 83.5033 122.588 82.0975 120.927C80.7489 119.337 79.4753 117.834 76.9195 117.834C74.3636 117.834 73.091 119.337 71.742 120.927C70.3341 122.588 68.8781 124.307 65.9478 124.307C63.0331 124.307 60.8664 122.884 59.3236 119.956C57.3672 116.243 59.7169 109.677 62.2052 102.727C63.4408 99.2752 64.7176 95.7058 65.5551 92.2921C67.7927 83.1591 68.0759 72.4276 68.3033 63.8042C68.3568 61.7646 68.4076 59.8378 68.4827 58.1479C68.8416 49.9588 72.0976 42.3371 77.6523 36.6862C80.413 33.857 83.7135 31.6108 87.3583 30.0805C91.003 28.5502 94.9179 27.7671 98.8708 27.7774C102.798 27.7681 106.687 28.5537 110.303 30.0869C113.919 31.62 117.187 33.869 119.911 36.6984C125.337 42.2854 128.657 49.8993 129.258 58.1362C129.838 66.0786 131.224 81.2296 133.988 93.4706C134.925 97.6224 135.974 101.29 136.9 104.525C138.833 111.282 140.23 116.164 138.844 119.487C138.092 121.286 136.178 124.305 131.786 124.305ZM120.811 117.025C123.742 117.025 125.198 118.742 126.607 120.405C127.956 121.995 129.23 123.497 131.786 123.497C135.708 123.497 137.423 120.789 138.095 119.174C139.371 116.112 138.006 111.345 136.119 104.746C135.192 101.5 134.138 97.8216 133.196 93.6477C130.42 81.3546 129.03 66.1584 128.449 58.194C127.215 41.3139 114.499 28.5847 98.8675 28.5847C83.0074 28.5847 70.0141 41.5852 69.2864 58.182C69.2128 59.8647 69.162 61.788 69.1069 63.824C68.8907 72.0289 68.5943 83.2655 66.3361 92.4832C65.4899 95.9373 64.2047 99.5274 62.9622 102.999C60.5359 109.777 58.2442 116.18 60.0349 119.578C61.4245 122.215 63.357 123.496 65.9433 123.496C68.4989 123.496 69.7718 121.994 71.1208 120.404C72.5287 118.743 73.9847 117.024 76.915 117.024C79.8453 117.024 81.3019 118.741 82.7098 120.404C84.0584 121.994 85.332 123.496 87.8878 123.496C90.4436 123.496 91.7178 121.994 93.0662 120.404C94.4746 118.743 95.9306 117.024 98.8612 117.024C101.792 117.024 103.248 118.742 104.656 120.404C106.005 121.994 107.278 123.496 109.834 123.496C112.39 123.496 113.664 121.994 115.013 120.404C116.424 118.744 117.88 117.025 120.811 117.025Z" fill="#292A2E"/>
<path d="M87.601 60.0974C89.4365 60.0974 90.9246 58.6094 90.9246 56.7738C90.9246 54.9382 89.4365 53.4502 87.601 53.4502C85.7654 53.4502 84.2773 54.9382 84.2773 56.7738C84.2773 58.6094 85.7654 60.0974 87.601 60.0974Z" fill="#292A2E"/>
<path d="M110.392 60.0974C112.228 60.0974 113.716 58.6094 113.716 56.7738C113.716 54.9382 112.228 53.4502 110.392 53.4502C108.556 53.4502 107.068 54.9382 107.068 56.7738C107.068 58.6094 108.556 60.0974 110.392 60.0974Z" fill="#292A2E"/>
<path d="M104.945 65.7451C105.137 65.7446 105.327 65.7869 105.5 65.8689C105.674 65.9509 105.827 66.0705 105.948 66.2191C106.069 66.3676 106.156 66.5414 106.202 66.7276C106.248 66.9139 106.251 67.1081 106.213 67.296C105.5 70.6283 102.539 72.7229 98.9937 72.7229C95.4484 72.7229 92.487 70.6292 91.7746 67.296C91.7359 67.1081 91.7396 66.9139 91.7854 66.7276C91.8312 66.5413 91.918 66.3675 92.0394 66.219C92.1608 66.0704 92.3138 65.9508 92.4873 65.8688C92.6607 65.7869 92.8503 65.7446 93.0421 65.7451H104.945Z" fill="white"/>
<path d="M98.9933 73.1271C95.1738 73.1271 92.114 70.8177 91.3788 67.3802C91.3264 67.1355 91.3297 66.8821 91.3883 66.6388C91.4469 66.3955 91.5593 66.1685 91.7174 65.9744C91.8767 65.7765 92.0784 65.6169 92.3076 65.5074C92.5369 65.3979 92.7878 65.3413 93.0418 65.3418H104.946C105.2 65.3414 105.451 65.398 105.68 65.5075C105.909 65.617 106.111 65.7766 106.27 65.9744C106.428 66.1685 106.541 66.3955 106.599 66.6388C106.658 66.8821 106.661 67.1355 106.609 67.3802C105.873 70.8177 102.812 73.1271 98.9933 73.1271ZM93.0412 66.1494C92.9077 66.1493 92.776 66.1791 92.6556 66.2366C92.5351 66.2942 92.4292 66.378 92.3455 66.482C92.2634 66.5826 92.205 66.7003 92.1745 66.8265C92.144 66.9528 92.1422 67.0842 92.1693 67.2112C92.8222 70.2659 95.5644 72.3183 98.9927 72.3183C102.421 72.3183 105.163 70.2659 105.816 67.2112C105.843 67.0842 105.842 66.9527 105.811 66.8265C105.78 66.7003 105.722 66.5825 105.64 66.482C105.556 66.378 105.45 66.2942 105.33 66.2366C105.209 66.179 105.078 66.1492 104.944 66.1494H93.0412Z" fill="#292A2E"/>
<path d="M177.122 157.696C159.181 181.217 130.863 196.394 98.9992 196.394C67.136 196.394 38.8171 181.217 20.877 157.696C41.3564 149.991 68.8139 145.28 98.9992 145.28C129.185 145.28 156.641 149.991 177.122 157.696Z" fill="#E86217"/>
<path d="M185.365 51.4288L134.969 51.2135C134.969 42.7968 139.71 41.1397 144.749 39.7729C149.789 38.406 152.056 29.1548 160.814 28.6283C165.986 28.3173 168.698 29.6483 170.945 31.3621C170.948 31.3651 170.948 31.3681 170.951 31.3681C176.578 37.4234 181.421 44.1633 185.365 51.4288Z" fill="white"/>
<path d="M41.6108 113.968L2.0935 114.139C1.41851 110.013 1.00889 105.847 0.867188 101.669C9.52318 100.443 8.63784 93.5634 18.9748 94.1885C26.6437 94.6491 28.6358 102.752 33.0475 103.948C37.4593 105.145 41.6108 106.6 41.6108 113.968Z" fill="white"/>
</g>
<defs>
<clipPath id="clip0_18755_274449">
<rect width="196.393" height="196.394" fill="white" transform="translate(0.802734)"/>
</clipPath>
</defs>
</svg>
